Aashiqui 2 2013 Hindi DVDRip ESubs XviD AC3-5.1-K@rtik


IMDB: http://www.imdb.com/title/tt2203308/

Language: Hindi

Subs: English 

Sample Included


Rip Information:

Format                                   : AVI
Format/Info                              : Audio Video Interleave
File size                                : 650 MiB
Duration                                 : 2h 14mn
Overall bit rate                         : 676 Kbps


Video:

Code:
Format                                   : MPEG-4 Visual
Format profile                           : Advanced Simple@L5
Format settings, BVOP                    : 2
Format settings, QPel                    : No
Format settings, GMC                     : No warppoints
Format settings, Matrix                  : Default (MPEG)
Codec ID                                 : XVID
Codec ID/Hint                            : XviD
Duration                                 : 2h 14mn
Bit rate                                 : 539 Kbps
Width                                    : 688 pixels
Height                                   : 288 pixels
Display aspect ratio                     : 2.40:1
Frame rate                               : 29.970 fps
Color space                              : YUV
Chroma subsampling                       : 4:2:0
Bit depth                                : 8 bits
Scan type                                : Progressive
Compression mode                         : Lossy
Bits/(Pixel*Frame)                       : 0.091
Stream size                              : 519 MiB (80%)
Writing library                          : XviD 1.2.1 (UTC 2008-12-04)


Audio:

Code:
Format                                   : AC-3
Format/Info                              : Audio Coding 3
Mode extension                           : CM (complete main)
Format settings, Endianness              : Big
Codec ID                                 : 2000
Duration                                 : 2h 14mn
Bit rate mode                            : Constant
Bit rate                                 : 128 Kbps
Channel(s)                               : 6 channels
Channel positions                        : Front: L C R, Side: L R, LFE
Sampling rate                            : 48.0 KHz
Bit depth                                : 16 bits
Compression mode                         : Lossy
Stream size                              : 123 MiB (19%)
Alignment                                : Aligned on interleaves
Interleave, duration                     : 64 ms (1.92 video frames)


==Team EXD Exclusive==


Poster:

 
http://i.imgur.com/RTaMSFy.jpg


Screenshots:

 
http://i.imgur.com/x4Kb0wa.png

 
http://i.imgur.com/GMr1SK3.png

 
http://i.imgur.com/KZdnCwD.png


SEED AND ENJOY!